<svg xmlns="http://www.w3.org/2000/svg" xmlns:xlink="http://www.w3.org/1999/xlink" contentStyleType="text/css" data-diagram-type="MINDMAP" height="697px" preserveAspectRatio="none" style="width:1414px;height:697px;background:#FFFFFF;" version="1.1" viewBox="0 0 1414 697" width="1414px" zoomAndPan="magnify"><defs/><g><rect fill="#F1F1F1" height="36.2969" rx="12.5" ry="12.5" style="stroke:#181818;stroke-width:1.5;" width="179.6807" x="565.0576" y="329.6328"/><text fill="#000000" font-family="sans-serif" font-size="14" lengthAdjust="spacing" textLength="159.6807" x="575.0576" y="352.6279">IDE-Umgebung Docker</text><rect fill="#F1F1F1" height="36.2969" rx="12.5" ry="12.5" style="stroke:#181818;stroke-width:1.5;" width="90.8408" x="794.7383" y="160.7422"/><text fill="#000000" font-family="sans-serif" font-size="14" lengthAdjust="spacing" textLength="70.8408" x="804.7383" y="183.7373">Dockerfile</text><rect fill="#F1F1F1" height="36.2969" rx="12.5" ry="12.5" style="stroke:#181818;stroke-width:1.5;" width="210.4971" x="935.5791" y="76.2969"/><text fill="#000000" font-family="sans-serif" font-size="14" lengthAdjust="spacing" textLength="190.4971" x="945.5791" y="99.292">Basis-Image: Ubuntu 22.04</text><path d="M885.5791,178.8906 L895.5791,178.8906 C910.5791,178.8906 910.5791,94.4453 925.5791,94.4453 L935.5791,94.4453" fill="none" style="stroke:#181818;stroke-width:1;"/><rect fill="#F1F1F1" height="36.2969" rx="12.5" ry="12.5" style="stroke:#181818;stroke-width:1.5;" width="466.6738" x="935.5791" y="132.5938"/><text fill="#000000" font-family="sans-serif" font-size="14" lengthAdjust="spacing" textLength="446.6738" x="945.5791" y="155.5889">Tools: Git, Curl, Vim, Python3, Node.js, Newman, Trivy, Gitleaks</text><path d="M885.5791,178.8906 L895.5791,178.8906 C910.5791,178.8906 910.5791,150.7422 925.5791,150.7422 L935.5791,150.7422" fill="none" style="stroke:#181818;stroke-width:1;"/><rect fill="#F1F1F1" height="36.2969" rx="12.5" ry="12.5" style="stroke:#181818;stroke-width:1.5;" width="237.4717" x="935.5791" y="188.8906"/><text fill="#000000" font-family="sans-serif" font-size="14" lengthAdjust="spacing" textLength="217.4717" x="945.5791" y="211.8857">Arbeitsverzeichnis: /workspace</text><path d="M885.5791,178.8906 L895.5791,178.8906 C910.5791,178.8906 910.5791,207.0391 925.5791,207.0391 L935.5791,207.0391" fill="none" style="stroke:#181818;stroke-width:1;"/><rect fill="#F1F1F1" height="36.2969" rx="12.5" ry="12.5" style="stroke:#181818;stroke-width:1.5;" width="151.667" x="935.5791" y="245.1875"/><text fill="#000000" font-family="sans-serif" font-size="14" lengthAdjust="spacing" textLength="131.667" x="945.5791" y="268.1826">CMD: sleep infinity</text><path d="M885.5791,178.8906 L895.5791,178.8906 C910.5791,178.8906 910.5791,263.3359 925.5791,263.3359 L935.5791,263.3359" fill="none" style="stroke:#181818;stroke-width:1;"/><path d="M744.7383,347.7813 L754.7383,347.7813 C769.7383,347.7813 769.7383,178.8906 784.7383,178.8906 L794.7383,178.8906" fill="none" style="stroke:#181818;stroke-width:1;"/><rect fill="#F1F1F1" height="36.2969" rx="12.5" ry="12.5" style="stroke:#181818;stroke-width:1.5;" width="166.2002" x="794.7383" y="357.7813"/><text fill="#000000" font-family="sans-serif" font-size="14" lengthAdjust="spacing" textLength="146.2002" x="804.7383" y="380.7764">docker-compose.yml</text><rect fill="#F1F1F1" height="36.2969" rx="12.5" ry="12.5" style="stroke:#181818;stroke-width:1.5;" width="270.4961" x="1010.9385" y="301.4844"/><text fill="#000000" font-family="sans-serif" font-size="14" lengthAdjust="spacing" textLength="250.4961" x="1020.9385" y="324.4795">Volumes: Quellcode, Docker-Socket</text><path d="M960.9385,375.9297 L970.9385,375.9297 C985.9385,375.9297 985.9385,319.6328 1000.9385,319.6328 L1010.9385,319.6328" fill="none" style="stroke:#181818;stroke-width:1;"/><rect fill="#F1F1F1" height="36.2969" rx="12.5" ry="12.5" style="stroke:#181818;stroke-width:1.5;" width="144.8721" x="1010.9385" y="357.7813"/><text fill="#000000" font-family="sans-serif" font-size="14" lengthAdjust="spacing" textLength="124.8721" x="1020.9385" y="380.7764">Ports: 3000, 8000</text><path d="M960.9385,375.9297 L970.9385,375.9297 C985.9385,375.9297 985.9385,375.9297 1000.9385,375.9297 L1010.9385,375.9297" fill="none" style="stroke:#181818;stroke-width:1;"/><rect fill="#F1F1F1" height="36.2969" rx="12.5" ry="12.5" style="stroke:#181818;stroke-width:1.5;" width="225.9053" x="1010.9385" y="414.0781"/><text fill="#000000" font-family="sans-serif" font-size="14" lengthAdjust="spacing" textLength="205.9053" x="1020.9385" y="437.0732">Optional: PostgreSQL-Service</text><path d="M960.9385,375.9297 L970.9385,375.9297 C985.9385,375.9297 985.9385,432.2266 1000.9385,432.2266 L1010.9385,432.2266" fill="none" style="stroke:#181818;stroke-width:1;"/><path d="M744.7383,347.7813 L754.7383,347.7813 C769.7383,347.7813 769.7383,375.9297 784.7383,375.9297 L794.7383,375.9297" fill="none" style="stroke:#181818;stroke-width:1;"/><rect fill="#F1F1F1" height="36.2969" rx="12.5" ry="12.5" style="stroke:#181818;stroke-width:1.5;" width="114.0146" x="794.7383" y="526.6719"/><text fill="#000000" font-family="sans-serif" font-size="14" lengthAdjust="spacing" textLength="94.0146" x="804.7383" y="549.667">Devcontainer</text><rect fill="#F1F1F1" height="36.2969" rx="12.5" ry="12.5" style="stroke:#181818;stroke-width:1.5;" width="375.2158" x="958.7529" y="470.375"/><text fill="#000000" font-family="sans-serif" font-size="14" lengthAdjust="spacing" textLength="355.2158" x="968.7529" y="493.3701">VS Code Extensions: ESLint, Prettier, Docker, Trivy</text><path d="M908.7529,544.8203 L918.7529,544.8203 C933.7529,544.8203 933.7529,488.5234 948.7529,488.5234 L958.7529,488.5234" fill="none" style="stroke:#181818;stroke-width:1;"/><rect fill="#F1F1F1" height="36.2969" rx="12.5" ry="12.5" style="stroke:#181818;stroke-width:1.5;" width="223.8682" x="958.7529" y="526.6719"/><text fill="#000000" font-family="sans-serif" font-size="14" lengthAdjust="spacing" textLength="203.8682" x="968.7529" y="549.667">Forwarded Ports: 3000, 8000</text><path d="M908.7529,544.8203 L918.7529,544.8203 C933.7529,544.8203 933.7529,544.8203 948.7529,544.8203 L958.7529,544.8203" fill="none" style="stroke:#181818;stroke-width:1;"/><rect fill="#F1F1F1" height="36.2969" rx="12.5" ry="12.5" style="stroke:#181818;stroke-width:1.5;" width="169.5156" x="958.7529" y="582.9688"/><text fill="#000000" font-family="sans-serif" font-size="14" lengthAdjust="spacing" textLength="149.5156" x="968.7529" y="605.9639">Remote User: vscode</text><path d="M908.7529,544.8203 L918.7529,544.8203 C933.7529,544.8203 933.7529,601.1172 948.7529,601.1172 L958.7529,601.1172" fill="none" style="stroke:#181818;stroke-width:1;"/><path d="M744.7383,347.7813 L754.7383,347.7813 C769.7383,347.7813 769.7383,544.8203 784.7383,544.8203 L794.7383,544.8203" fill="none" style="stroke:#181818;stroke-width:1;"/><rect fill="#F1F1F1" height="36.2969" rx="12.5" ry="12.5" style="stroke:#181818;stroke-width:1.5;" width="134.1738" x="380.8838" y="104.4453"/><text fill="#000000" font-family="sans-serif" font-size="14" lengthAdjust="spacing" textLength="114.1738" x="390.8838" y="127.4404">Security &amp; Tools</text><rect fill="#F1F1F1" height="36.2969" rx="12.5" ry="12.5" style="stroke:#181818;stroke-width:1.5;" width="54.7676" x="276.1162" y="20"/><text fill="#000000" font-family="sans-serif" font-size="14" lengthAdjust="spacing" textLength="34.7676" x="286.1162" y="42.9951">Trivy</text><path d="M380.8838,122.5938 L370.8838,122.5938 C355.8838,122.5938 355.8838,38.1484 340.8838,38.1484 L330.8838,38.1484" fill="none" style="stroke:#181818;stroke-width:1;"/><rect fill="#F1F1F1" height="36.2969" rx="12.5" ry="12.5" style="stroke:#181818;stroke-width:1.5;" width="76.7109" x="254.1729" y="76.2969"/><text fill="#000000" font-family="sans-serif" font-size="14" lengthAdjust="spacing" textLength="56.7109" x="264.1729" y="99.292">Gitleaks</text><path d="M380.8838,122.5938 L370.8838,122.5938 C355.8838,122.5938 355.8838,94.4453 340.8838,94.4453 L330.8838,94.4453" fill="none" style="stroke:#181818;stroke-width:1;"/><rect fill="#F1F1F1" height="36.2969" rx="12.5" ry="12.5" style="stroke:#181818;stroke-width:1.5;" width="111.4375" x="219.4463" y="132.5938"/><text fill="#000000" font-family="sans-serif" font-size="14" lengthAdjust="spacing" textLength="91.4375" x="229.4463" y="155.5889">Secrets-Scan</text><path d="M380.8838,122.5938 L370.8838,122.5938 C355.8838,122.5938 355.8838,150.7422 340.8838,150.7422 L330.8838,150.7422" fill="none" style="stroke:#181818;stroke-width:1;"/><rect fill="#F1F1F1" height="36.2969" rx="12.5" ry="12.5" style="stroke:#181818;stroke-width:1.5;" width="235.7764" x="95.1074" y="188.8906"/><text fill="#000000" font-family="sans-serif" font-size="14" lengthAdjust="spacing" textLength="215.7764" x="105.1074" y="211.8857">Linting Tools (ESLint, Hadolint)</text><path d="M380.8838,122.5938 L370.8838,122.5938 C355.8838,122.5938 355.8838,207.0391 340.8838,207.0391 L330.8838,207.0391" fill="none" style="stroke:#181818;stroke-width:1;"/><path d="M565.0576,347.7813 L555.0576,347.7813 C540.0576,347.7813 540.0576,122.5938 525.0576,122.5938 L515.0576,122.5938" fill="none" style="stroke:#181818;stroke-width:1;"/><rect fill="#F1F1F1" height="36.2969" rx="12.5" ry="12.5" style="stroke:#181818;stroke-width:1.5;" width="107.8145" x="407.2432" y="329.6328"/><text fill="#000000" font-family="sans-serif" font-size="14" lengthAdjust="spacing" textLength="87.8145" x="417.2432" y="352.6279">Optimierung</text><rect fill="#F1F1F1" height="36.2969" rx="12.5" ry="12.5" style="stroke:#181818;stroke-width:1.5;" width="127.2217" x="230.0215" y="245.1875"/><text fill="#000000" font-family="sans-serif" font-size="14" lengthAdjust="spacing" textLength="107.2217" x="240.0215" y="268.1826">Vorbuild-Image</text><path d="M407.2432,347.7813 L397.2432,347.7813 C382.2432,347.7813 382.2432,263.3359 367.2432,263.3359 L357.2432,263.3359" fill="none" style="stroke:#181818;stroke-width:1;"/><rect fill="#F1F1F1" height="36.2969" rx="12.5" ry="12.5" style="stroke:#181818;stroke-width:1.5;" width="120.6592" x="236.584" y="301.4844"/><text fill="#000000" font-family="sans-serif" font-size="14" lengthAdjust="spacing" textLength="100.6592" x="246.584" y="324.4795">Layer-Caching</text><path d="M407.2432,347.7813 L397.2432,347.7813 C382.2432,347.7813 382.2432,319.6328 367.2432,319.6328 L357.2432,319.6328" fill="none" style="stroke:#181818;stroke-width:1;"/><rect fill="#F1F1F1" height="36.2969" rx="12.5" ry="12.5" style="stroke:#181818;stroke-width:1.5;" width="133.2031" x="224.04" y="357.7813"/><text fill="#000000" font-family="sans-serif" font-size="14" lengthAdjust="spacing" textLength="113.2031" x="234.04" y="380.7764">Setup \&lt; 30 Min</text><path d="M407.2432,347.7813 L397.2432,347.7813 C382.2432,347.7813 382.2432,375.9297 367.2432,375.9297 L357.2432,375.9297" fill="none" style="stroke:#181818;stroke-width:1;"/><rect fill="#F1F1F1" height="36.2969" rx="12.5" ry="12.5" style="stroke:#181818;stroke-width:1.5;" width="164.6484" x="192.5947" y="414.0781"/><text fill="#000000" font-family="sans-serif" font-size="14" lengthAdjust="spacing" textLength="144.6484" x="202.5947" y="437.0732">Parallele Einrichtung</text><path d="M407.2432,347.7813 L397.2432,347.7813 C382.2432,347.7813 382.2432,432.2266 367.2432,432.2266 L357.2432,432.2266" fill="none" style="stroke:#181818;stroke-width:1;"/><path d="M565.0576,347.7813 L555.0576,347.7813 C540.0576,347.7813 540.0576,347.7813 525.0576,347.7813 L515.0576,347.7813" fill="none" style="stroke:#181818;stroke-width:1;"/><rect fill="#F1F1F1" height="36.2969" rx="12.5" ry="12.5" style="stroke:#181818;stroke-width:1.5;" width="214.1611" x="300.8965" y="554.8203"/><text fill="#000000" font-family="sans-serif" font-size="14" lengthAdjust="spacing" textLength="194.1611" x="310.8965" y="577.8154">Dokumentation &amp; Migration</text><rect fill="#F1F1F1" height="36.2969" rx="12.5" ry="12.5" style="stroke:#181818;stroke-width:1.5;" width="106.3105" x="144.5859" y="470.375"/><text fill="#000000" font-family="sans-serif" font-size="14" lengthAdjust="spacing" textLength="86.3105" x="154.5859" y="493.3701">Setup Guide</text><path d="M300.8965,572.9688 L290.8965,572.9688 C275.8965,572.9688 275.8965,488.5234 260.8965,488.5234 L250.8965,488.5234" fill="none" style="stroke:#181818;stroke-width:1;"/><rect fill="#F1F1F1" height="36.2969" rx="12.5" ry="12.5" style="stroke:#181818;stroke-width:1.5;" width="146.7383" x="104.1582" y="526.6719"/><text fill="#000000" font-family="sans-serif" font-size="14" lengthAdjust="spacing" textLength="126.7383" x="114.1582" y="549.667">Tools &amp; Versionen</text><path d="M300.8965,572.9688 L290.8965,572.9688 C275.8965,572.9688 275.8965,544.8203 260.8965,544.8203 L250.8965,544.8203" fill="none" style="stroke:#181818;stroke-width:1;"/><rect fill="#F1F1F1" height="36.2969" rx="12.5" ry="12.5" style="stroke:#181818;stroke-width:1.5;" width="175.3262" x="75.5703" y="582.9688"/><text fill="#000000" font-family="sans-serif" font-size="14" lengthAdjust="spacing" textLength="155.3262" x="85.5703" y="605.9639">Sicherheits-Workflows</text><path d="M300.8965,572.9688 L290.8965,572.9688 C275.8965,572.9688 275.8965,601.1172 260.8965,601.1172 L250.8965,601.1172" fill="none" style="stroke:#181818;stroke-width:1;"/><rect fill="#F1F1F1" height="36.2969" rx="12.5" ry="12.5" style="stroke:#181818;stroke-width:1.5;" width="240.8965" x="10" y="639.2656"/><text fill="#000000" font-family="sans-serif" font-size="14" lengthAdjust="spacing" textLength="220.8965" x="20" y="662.2607">Migration bestehender Projekte</text><path d="M300.8965,572.9688 L290.8965,572.9688 C275.8965,572.9688 275.8965,657.4141 260.8965,657.4141 L250.8965,657.4141" fill="none" style="stroke:#181818;stroke-width:1;"/><path d="M565.0576,347.7813 L555.0576,347.7813 C540.0576,347.7813 540.0576,572.9688 525.0576,572.9688 L515.0576,572.9688" fill="none" style="stroke:#181818;stroke-width:1;"/><!--SRC=[TLF1Sjem4BtxAtQcCvbaObCWQIV3z906I1eABOa3lVGYsmiebYNFIZAbNz-L3MallO0ilNtxzktkhNM2N2LrKOawigNKjI1HGIRoSal6ws9ib25uPtsDj4CoYV5EIOtH9JnEficgscBczHOc9Y-HeilBusaZ5MFuyqvOQPF7Icnn12l6EW_3OQz_tRw-6AFi21waYs7iISMmbbKCouFR6NqLmpTJOE_LyW7tbT0nl91i3d48K2XAsv9yfWobimtIRvJvJajcVBytLDfQv9sAyM8o0giGQv1w8xLqXw2rQBKckQbgOx5tg5IBNXlbAsIM9uzAvQmXFfQLfE7FjQYb8SUOgtw_7yCD_xQttsidZHPgnE_MRGdJftcI8ZMobG8JR7AZdM0FgKkMmfWpmFINGsqvbZcdwLngjcH9w9n4EgK_rj_6tHlQ2ogm-8-GPwoCGrXPf14qDbGH9Gcac7lYyk6iCv_laYDhEBqPctHO5c2JD1UwlGYg97UxZOJpaymleZ0y5EuY90W6LAoPfwADMHlAl5H5DmCTZJYmbMEHx-GHbABpDVpyn4N0GdR9bZoAIg5YQwGcRgphADcBajl37WQdkOw5t59x_eVgmSkYIzPfFOCrKd0NZoZc2nFDSvFyu57PABFlYdvZWmojmntg0eaxOLwnT1ZTylTfOQAb4jgj5dDeEd8Oz8RzuOVUO92X4uF- -KgNskmrX0dZZG2s1Y-YyuVb7Apnb2CKqZgIcGyPBwAPQ0Gyyv8mRiHMefvDlfukOAeRIKQ7sgFPUl4NyF4wkPCEmfYnrlKYck16UEKuWllE9lFglTmdDz5SwArlLv5z6FE2EphmM_e7]--></g></svg>